<svg xmlns="http://www.w3.org/2000/svg" fill="none" viewBox="0 0 16 16"><path fill="#fff" d="M2.5 14h11c.275 0 .5-.225.5-.5v-11c0-.275-.225-.5-.5-.5h-11c-.275 0-.5.225-.5.5v11c0 .275.225.5.5.5z"/><path fill="#605E5C" fill-rule="evenodd" d="M2.5 15h11c.827 0 1.5-.673 1.5-1.5v-11c0-.827-.673-1.5-1.5-1.5h-11C1.673 1 1 1.673 1 2.5v11c0 .827.673 1.5 1.5 1.5zM2 2.5a.5.5 0 0 1 .5-.5h11a.5.5 0 0 1 .5.5v11a.5.5 0 0 1-.5.5h-11a.5.5 0 0 1-.5-.5v-11z" clip-rule="evenodd" opacity=".64"/><path fill="#BC1948" d="M11 8a.49.49 0 0 1-.24.42l-4 2.5a.5.5 0 0 1-.26.08.5.5 0 0 1-.24-.06.51.51 0 0 1-.26-.44V8h5z"/><path fill="#E8467C" d="M11 8a.492.492 0 0 0-.24-.421l-4-2.507a.469.469 0 0 0-.5 0 .51.51 0 0 0-.26.421V8h5z"/></svg>